<svg width="34" height="28" viewBox="0 0 34 28" fill="none" xmlns="http://www.w3.org/2000/svg">
<path d="M29.4232 4.87616C26.8474 2.33717 23.4262 0.935791 19.7914 0.935791C16.1565 0.935791 12.733 2.33946 10.1596 4.87616L0.727497 14.1904L0.722851 14.195L0.323364 14.5849L5.80469 19.9977L6.19953 19.6032L6.20418 19.6078L15.6409 10.289C17.9286 8.02983 21.6518 8.02983 23.9442 10.289C26.2319 12.5482 26.2319 16.2294 23.9442 18.4885C21.6518 20.7477 17.9286 20.7477 15.6409 18.4885L15.2414 18.094L9.76007 23.5069L10.1596 23.9014C12.8166 26.5207 16.3028 27.8326 19.7914 27.8326C23.2799 27.8326 26.7661 26.5207 29.4232 23.9014C34.7326 18.6583 34.7326 10.1216 29.4232 4.87616ZM14.0638 22.7592L13.8664 22.617C13.5947 22.422 13.3299 22.211 13.0767 21.9885L12.8956 21.828L13.2184 21.4679L13.3996 21.6285C13.6411 21.8395 13.8943 22.0413 14.1521 22.2271L14.3495 22.3693L14.0638 22.7569V22.7592ZM17.787 24.344L17.5501 24.289C16.8881 24.1353 16.2401 23.9151 15.6246 23.6353L15.404 23.5344L15.6084 23.0986L15.829 23.1996C16.4166 23.4656 17.0344 23.6766 17.6639 23.8234L17.9008 23.8785L17.7893 24.3463L17.787 24.344ZM21.6007 24.4243C21.1199 24.5046 20.6275 24.5482 20.1398 24.5596C20.0678 24.5596 19.9958 24.5596 19.9238 24.5596C19.8053 24.5596 19.6869 24.5596 19.5684 24.5528L19.3245 24.5436L19.3408 24.0642L19.5847 24.0734C19.7658 24.0803 19.947 24.0803 20.1281 24.078C20.5927 24.0688 21.0618 24.0252 21.5194 23.9496L21.7586 23.9106L21.8399 24.3853L21.6007 24.4243ZM25.3865 22.9908C24.8105 23.3509 24.1997 23.6537 23.5656 23.8945L23.338 23.9817L23.1638 23.5321L23.3914 23.445C23.9929 23.2156 24.5759 22.9266 25.1264 22.5849L25.3331 22.4564L25.5932 22.8624L25.3865 22.9908ZM28.45 8.66056L28.5824 8.8624C28.9517 9.42662 29.2652 10.0275 29.5138 10.6514L29.602 10.8739L29.1491 11.0505L29.0609 10.828C28.8239 10.234 28.5267 9.66056 28.1736 9.12387L28.0412 8.92203L28.45 8.66056ZM3.74223 16.906L3.39848 16.5665L4.44365 15.5344L4.7874 15.8739L3.74223 16.906ZM5.86973 14.8051L5.52598 14.4656L7.27954 12.734L7.62329 13.0734L5.86973 14.8051ZM8.68703 12.0229L8.34329 11.6835L10.0969 9.95185L10.4406 10.2913L8.68703 12.0229ZM11.502 9.24313L11.1583 8.90368L12.9118 7.17203L13.2556 7.51148L11.502 9.24313ZM16.2355 5.46332C15.6502 5.72249 15.0858 6.04359 14.5539 6.41744L14.3565 6.55735L14.0731 6.16515L14.2706 6.02524C14.828 5.63075 15.4226 5.29359 16.0357 5.02295L16.2587 4.92432L16.4584 5.3624L16.2355 5.46102V5.46332ZM20.2466 4.68808H19.9214C19.7542 4.68808 19.5847 4.68809 19.4151 4.69955C18.9692 4.72249 18.5163 4.77983 18.075 4.87157L17.8357 4.91974L17.7359 4.44955L17.9751 4.39909C18.4419 4.30276 18.9181 4.24084 19.3919 4.2179C19.5684 4.20873 19.7472 4.20414 19.9214 4.20414H20.2489L20.2466 4.68579V4.68808ZM24.0069 5.55965L23.7839 5.46561C23.1893 5.21331 22.5669 5.02065 21.9328 4.88992L21.6936 4.84175L21.7934 4.37157L22.0327 4.41974C22.6969 4.55506 23.3519 4.75919 23.9744 5.02295L24.1973 5.11698L24.0069 5.55965ZM25.4817 6.38992L25.282 6.2546L25.5584 5.85781L25.7581 5.99313C26.3179 6.37387 26.8404 6.80964 27.3143 7.2913L27.4838 7.46331L27.1354 7.79818L26.9659 7.62616C26.5153 7.16744 26.0159 6.7523 25.484 6.38992H25.4817ZM28.3292 20.2408C27.9367 20.7867 27.4861 21.2959 26.9937 21.7569L26.8172 21.922L26.4828 21.5734L26.6593 21.4083C27.1308 20.9679 27.5581 20.4817 27.9344 19.961L28.0761 19.7661L28.4732 20.0459L28.3316 20.2408H28.3292ZM29.9852 16.5872C29.8366 17.2408 29.6206 17.883 29.3419 18.4954L29.242 18.7156L28.7984 18.5184L28.8983 18.2982C29.163 17.7133 29.3698 17.1032 29.5114 16.4817L29.5649 16.2477L30.041 16.3532L29.9876 16.5872H29.9852ZM30.2222 14.8303L29.7344 14.8211L29.739 14.5803C29.739 14.5138 29.739 14.4473 29.739 14.383C29.739 13.8074 29.6879 13.2317 29.5858 12.6697L29.5439 12.4335L30.0224 12.3486L30.0642 12.5849C30.171 13.1743 30.2245 13.7775 30.2245 14.3807C30.2245 14.4496 30.2245 14.5184 30.2245 14.5872L30.2198 14.828L30.2222 14.8303Z" fill="white"/>
</svg>
