<svg width="16" height="16" viewBox="0 0 16 16" fill="none" xmlns="http://www.w3.org/2000/svg">
<path fill-rule="evenodd" clip-rule="evenodd" d="M4.83337 6.66667C4.83337 5.82681 5.167 5.02136 5.76087 4.4275C6.35473 3.83363 7.16019 3.5 8.00004 3.5C8.83989 3.5 9.64535 3.83363 10.2392 4.4275C10.8331 5.02136 11.1667 5.82681 11.1667 6.66667C11.1667 7.50652 10.8331 8.31197 10.2392 8.90584C9.64535 9.4997 8.83989 9.83333 8.00004 9.83333C7.16019 9.83333 6.35473 9.4997 5.76087 8.90584C5.167 8.31197 4.83337 7.50652 4.83337 6.66667ZM8.00004 4.5C7.42541 4.5 6.87431 4.72827 6.46798 5.1346C6.06165 5.54093 5.83337 6.09203 5.83337 6.66667C5.83337 7.2413 6.06165 7.7924 6.46798 8.19873C6.87431 8.60506 7.42541 8.83333 8.00004 8.83333C8.57468 8.83333 9.12578 8.60506 9.53211 8.19873C9.93843 7.7924 10.1667 7.2413 10.1667 6.66667C10.1667 6.09203 9.93843 5.54093 9.53211 5.1346C9.12578 4.72827 8.57468 4.5 8.00004 4.5Z" fill="#3DB44A"/>
<path fill-rule="evenodd" clip-rule="evenodd" d="M2.34932 5.90434C2.46357 4.52232 3.09319 3.23376 4.11325 2.29434C5.13331 1.35492 6.46925 0.833312 7.85599 0.833008H8.14399C9.53072 0.833312 10.8667 1.35492 11.8867 2.29434C12.9068 3.23376 13.5364 4.52232 13.6507 5.90434C13.7777 7.44389 13.3021 8.97265 12.324 10.1683L9.12865 14.0757C8.99191 14.2429 8.81971 14.3776 8.62451 14.4702C8.42932 14.5627 8.216 14.6107 7.99999 14.6107C7.78397 14.6107 7.57065 14.5627 7.37546 14.4702C7.18026 14.3776 7.00807 14.2429 6.87132 14.0757L3.67599 10.1683C2.69787 8.97265 2.22223 7.44389 2.34932 5.90434ZM7.85599 1.83301C6.7204 1.83349 5.62647 2.26077 4.79119 3.03011C3.95591 3.79944 3.44031 4.85462 3.34665 5.98634C3.24084 7.2676 3.63665 8.5399 4.45065 9.53501L7.64599 13.443C7.68894 13.4956 7.74304 13.5379 7.80438 13.567C7.86572 13.5961 7.93276 13.6112 8.00065 13.6112C8.06854 13.6112 8.13558 13.5961 8.19692 13.567C8.25826 13.5379 8.31236 13.4956 8.35532 13.443L11.5507 9.53501C12.3642 8.5397 12.7595 7.26743 12.6533 5.98634C12.5597 4.85451 12.044 3.79923 11.2085 3.02988C10.3731 2.26053 9.27902 1.83332 8.14332 1.83301H7.85599Z" fill="#3DB44A"/>
</svg>
