<svg width="38" height="38" viewBox="0 0 38 38" fill="none" xmlns="http://www.w3.org/2000/svg">
<g clip-path="url(#clip0_307_9111)">
<g filter="url(#filter0_d_307_9111)">
<path d="M31.1677 16.4757C31.1478 16.4638 31.116 16.4638 31.0843 16.4836L30.1191 17.0436C30.0556 17.0794 30.004 17.1668 30.004 17.2383V17.2621L29.6346 17.4765L29.3807 17.3298L29.75 17.1153V17.0915C29.75 17.016 29.8017 16.9287 29.8652 16.8929L30.8303 16.3369C30.8621 16.317 30.8939 16.317 30.9137 16.3289L31.1677 16.4757Z" fill="#434240"/>
<path d="M31.0847 16.4839C31.1481 16.4473 31.2015 16.4748 31.2017 16.5477L31.2034 17.1363C31.2036 17.212 31.1505 17.301 31.0871 17.3376L30.121 17.8954C30.0576 17.932 30.0067 17.903 30.0065 17.8273L30.0053 17.4135L29.6351 17.6273L29.6347 17.4758L30.0049 17.262L30.0048 17.2387C30.0046 17.1659 30.0552 17.0783 30.1185 17.0417L31.0847 16.4839Z" fill="#2D2C2B"/>
<path d="M35.3534 27.1816C34.873 27.8072 34.2504 28.3078 33.6145 28.7746C32.357 29.6975 31.0104 30.5192 29.5431 31.0484C28.0758 31.5777 26.3299 31.9987 24.7943 31.7248C27.3215 29.6805 30.1388 27.6186 32.9248 25.9441C33.6085 25.5332 34.3278 25.1271 35.1187 24.9702C35.3335 24.9276 35.9909 24.7766 36.1269 25.0102C36.2654 25.2479 36.0576 25.8107 35.9766 26.0453C35.8349 26.4555 35.6173 26.838 35.3534 27.1816Z" fill="#3DB44A"/>
<path d="M7.28823 23.2483L8.74608 22.4011C9.09401 22.1989 9.30986 21.7691 9.31159 21.1585C9.3133 19.9223 8.44853 18.4295 7.37987 17.8125L5.92203 18.6597C6.99068 19.2767 7.85545 20.7695 7.85374 22.0057C7.85201 22.6163 7.63617 23.0461 7.28823 23.2483Z" fill="#21201F"/>
<path d="M21.9978 31.7673L23.4556 30.9201C23.8036 30.7179 24.0194 30.2881 24.0212 29.6775C24.0229 28.4413 23.1581 26.9485 22.0894 26.3315L20.6316 27.1788C21.7003 27.7957 22.565 29.2885 22.5633 30.5247C22.5616 31.1353 22.3457 31.5651 21.9978 31.7673Z" fill="#21201F"/>
<path d="M2.64959 17.2111L13.219 11.0688L12.3684 11.1701L1.79905 17.3123L2.64959 17.2111Z" fill="#434240"/>
<path d="M12.9193 7.27281C9.55762 7.38088 6.06406 9.07363 2.34994 13.4151C2.79976 13.1537 4.3808 12.8078 4.46779 12.7887L15.0372 6.64648C14.9502 6.66551 13.3692 7.01147 12.9193 7.27281Z" fill="#21201F"/>
<path d="M16.5615 7.87617C16.5556 7.86126 16.5505 7.84718 16.5466 7.83398C13.0234 9.88142 9.50044 11.9288 5.97724 13.9763C5.98115 13.9894 5.98622 14.0035 5.99213 14.0184C9.16295 12.1757 13.3907 9.71884 16.5615 7.87617Z" fill="#3DB44A"/>
<path d="M16.2138 8.0234C12.8012 10.0066 9.38883 11.9897 5.97624 13.9728C5.97656 13.974 5.9769 13.9751 5.97724 13.9763C9.50044 11.9288 13.0234 9.88142 16.5466 7.83398C16.5463 7.83284 16.5459 7.8317 16.5456 7.83057C16.435 7.89484 16.3244 7.95913 16.2138 8.0234Z" fill="#3DB44A"/>
<path d="M13.7247 9.37981C11.1492 10.8765 8.5739 12.3731 5.99846 13.8698C5.96502 13.8898 5.96271 13.9254 5.97624 13.9731C9.49945 11.9256 13.0224 9.87825 16.5456 7.83082C16.5321 7.78319 16.5344 7.74757 16.5678 7.72754C15.6201 8.2783 14.6724 8.82906 13.7247 9.37981Z" fill="#3DB44A"/>
<path d="M16.5678 7.72758C16.5681 7.7274 16.5684 7.72723 16.5687 7.72705L5.99936 13.8693C5.99905 13.8695 5.99875 13.8697 5.99845 13.8698C8.51094 12.4098 11.0233 10.9497 13.5358 9.48963C14.5465 8.90228 15.5611 8.3217 16.5678 7.72758Z" fill="#3DB44A"/>
<path d="M16.9472 26.0625L27.5166 19.9202L13.219 11.0688L2.64959 17.2111L16.9472 26.0625Z" fill="#434240"/>
<path d="M17.8935 9.31401C17.58 9.07982 16.7066 8.03212 16.6277 7.84229L6.05833 13.9845C6.13718 14.1744 7.01058 15.2221 7.32408 15.4563C10.4949 13.6136 14.7226 11.1567 17.8935 9.31401Z" fill="#21201F"/>
<path d="M7.49879 15.6598L18.0682 9.51753L18.1004 9.47656L7.53103 15.6188L7.49879 15.6598Z" fill="#21201F"/>
<path d="M8.40297 16.3528L18.9723 10.2105L18.0682 9.51758L7.49879 15.6598L8.40297 16.3528Z" fill="#21201F"/>
<path d="M20.0646 11.0501C19.3712 10.6498 18.2 9.65056 17.88 9.4126C14.3568 11.46 10.8338 13.5074 7.31061 15.5549C7.63064 15.7928 8.80182 16.7921 9.49521 17.1924C13.0184 15.1449 16.5414 13.0976 20.0646 11.0501Z" fill="#3DB44A"/>
<path d="M18.1004 9.47654C18.0139 9.40719 17.943 9.35162 17.8935 9.31396L7.32408 15.4562C7.37359 15.4939 7.44447 15.5494 7.53103 15.6188C10.7018 13.7761 14.9296 11.3192 18.1004 9.47654Z" fill="#21201F"/>
<path d="M8.32476 14.6087L18.8941 8.46642L18.9145 8.44043L8.3451 14.5827L8.32476 14.6087Z" fill="#21201F"/>
<path d="M8.40297 16.3526L18.9723 10.2104C18.9765 10.2018 18.9803 10.1919 18.9837 10.1806C19.077 9.88297 18.945 8.70048 18.9189 8.47698C18.9161 8.4533 18.9146 8.44107 18.9145 8.44043L8.3451 14.5827C8.34518 14.5833 8.34668 14.5956 8.34948 14.6192C8.37558 14.8427 8.5076 16.0252 8.41435 16.3229C8.41091 16.3341 8.40712 16.3441 8.40297 16.3526Z" fill="#21201F"/>
<path d="M16.6363 7.83484L6.06688 13.9771C6.17913 13.9119 7.08464 14.1779 7.52908 14.3094L18.0985 8.16716C17.654 8.03564 16.7485 7.7696 16.6363 7.83484Z" fill="#434240"/>
<path d="M8.32476 14.6089L18.8941 8.4666C18.5895 8.33483 18.3183 8.23121 18.0985 8.16699L7.52909 14.3092C7.74887 14.3735 8.02012 14.4771 8.32476 14.6089Z" fill="#434240"/>
<path d="M18.706 8.28159C18.4668 8.18241 18.2538 8.10389 18.0757 8.05127L7.50627 14.1935C7.6844 14.2461 7.89739 14.3247 8.13666 14.4238C11.6599 12.3764 15.1828 10.329 18.706 8.28159Z" fill="#21201F"/>
<path d="M11.9115 18.7661L22.4808 12.6238L22.4793 12.5439L11.9099 18.6862L11.9115 18.7661Z" fill="#21201F"/>
<path d="M11.9099 18.686L22.4793 12.5437C21.2795 11.7348 20.3332 11.0987 20.0649 10.9438C19.7603 10.768 19.3625 10.4748 18.9837 10.1807L8.41436 16.3229C8.79308 16.617 9.19092 16.9102 9.49551 17.0861C9.76384 17.241 10.7102 17.877 11.9099 18.686Z" fill="#21201F"/>
<path d="M12.8786 19.4002L23.448 13.258L22.4808 12.6235L11.9115 18.7658L12.8786 19.4002Z" fill="#21201F"/>
<path d="M12.8786 19.4003L23.448 13.2581L23.4363 13.187L12.867 19.3293L12.8786 19.4003Z" fill="#21201F"/>
<path d="M17.9028 22.6125L28.4721 16.4703C27.2835 15.7616 25.2119 14.3793 23.4363 13.187L12.867 19.3293C14.6425 20.5216 16.7142 21.9038 17.9028 22.6125Z" fill="#21201F"/>
<path d="M11.9099 18.6859L22.4793 12.5437L22.436 10.3184L11.8667 16.4606L11.9099 18.6859Z" fill="#434240"/>
<path d="M12.8669 19.3295L23.4363 13.1872L23.0247 10.668L12.4553 16.8102L12.8669 19.3295Z" fill="#21201F"/>
<path d="M18.0925 22.1599L28.6619 16.0176C27.7427 14.7992 25.9035 12.6506 24.8509 11.8604C24.4488 11.5597 23.7947 11.1327 23.0247 10.668L12.4553 16.8102C13.2253 17.275 13.8794 17.7019 14.2815 18.0027C15.3341 18.7929 17.1733 20.9414 18.0925 22.1599Z" fill="#434240"/>
<path d="M25.6093 12.4121C22.0861 14.4596 18.5632 16.5072 15.0398 18.5542C16.2112 19.6802 17.7527 21.5291 18.4105 22.4625C19.4831 21.8392 20.5557 21.2159 21.6282 20.5926C24.0788 19.1685 26.5293 17.7444 28.9798 16.3202C28.322 15.3867 26.7807 13.5381 25.6093 12.4121Z" fill="#21201F"/>
<path d="M17.972 22.6642L28.5414 16.5219L28.5483 16.4385L17.9789 22.5807L17.972 22.6642Z" fill="#434240"/>
<path d="M20.0646 11.0503C20.1594 11.105 20.343 11.2228 20.5949 11.3886L11.8667 16.4609L11.9099 18.6862L12.688 18.2341L12.867 19.3295C14.6425 20.5218 16.7142 21.9041 17.9028 22.6128L18.3374 22.3602C18.3552 22.3848 18.3724 22.4088 18.3891 22.4324C18.2233 22.5287 18.0598 22.6237 17.8991 22.7171C15.6212 21.3563 10.1885 17.5928 9.49522 17.1925C13.0184 15.1451 16.5414 13.0977 20.0646 11.0503Z" fill="#3DB44A"/>
<path d="M11.6604 16.341L22.2298 10.1987C21.1764 9.59054 19.8845 8.89661 18.9189 8.47705L8.34949 14.6193C9.31508 15.0389 10.607 15.7328 11.6604 16.341Z" fill="#434240"/>
<path d="M18.706 8.28174C15.1828 10.3292 11.6599 12.3766 8.13667 14.424C8.95754 14.7642 10.0878 15.3477 11.1814 15.9634C14.7046 13.9159 18.2276 11.8686 21.7508 9.82113C20.6572 9.20545 19.5269 8.62199 18.706 8.28174Z" fill="#21201F"/>
<path d="M11.6604 16.3413C10.607 15.7331 9.31509 15.0392 8.34949 14.6196C8.37559 14.8431 8.50761 16.0256 8.41436 16.3233C8.79308 16.6174 9.19092 16.9106 9.49552 17.0865C9.76385 17.2414 10.7102 17.8774 11.9099 18.6863L11.8667 16.461C11.7984 16.4212 11.7297 16.3813 11.6604 16.3413Z" fill="#434240"/>
<path d="M12.4397 16.7151L23.0091 10.5729L22.4346 10.2451L11.8653 16.3874L12.4397 16.7151Z" fill="#21201F"/>
<path d="M11.8667 16.461L22.4361 10.3187L22.4347 10.2451L11.8653 16.3874L11.8667 16.461Z" fill="#21201F"/>
<path d="M11.8667 16.4607L22.4361 10.3184C22.3678 10.2786 22.2991 10.2388 22.2298 10.1987L11.6604 16.341C11.7297 16.381 11.7984 16.4209 11.8667 16.4607Z" fill="#434240"/>
<path d="M12.4553 16.8102L23.0247 10.6679L23.0091 10.5728L12.4397 16.715L12.4553 16.8102Z" fill="#21201F"/>
<path d="M23.1635 10.6464C23.0748 10.5925 22.9845 10.5381 22.893 10.4834C19.3698 12.5309 15.8469 14.5783 12.3237 16.6257C12.4152 16.6804 12.5054 16.7348 12.5942 16.7887C16.1174 14.7412 19.6403 12.6939 23.1635 10.6464Z" fill="#21201F"/>
<path d="M24.8643 11.7616C24.4773 11.4718 23.8688 11.0748 23.1635 10.6465C19.6404 12.6939 16.1174 14.7413 12.5942 16.7887C13.2994 17.2171 13.9079 17.6141 14.2949 17.9038C14.5123 18.0671 14.766 18.2909 15.0398 18.5541C18.5632 16.507 22.0861 14.4594 25.6093 12.412C25.3354 12.1487 25.0817 11.9249 24.8643 11.7616Z" fill="#21201F"/>
<path d="M17.972 22.664L28.5414 16.5218C28.5019 16.495 28.4754 16.476 28.4721 16.4702L17.9028 22.6125C17.9061 22.6183 17.9325 22.6372 17.972 22.664Z" fill="#21201F"/>
<path d="M28.9687 16.9167C28.7329 16.7806 28.4817 16.585 28.4685 16.5747L17.8991 22.717C17.9124 22.7273 18.1636 22.9228 18.3993 23.0589C21.5701 21.2162 25.7979 18.7593 28.9687 16.9167Z" fill="#3DB44A"/>
<path d="M17.9789 22.5808L28.5483 16.4385C28.5719 16.2849 28.6119 16.1485 28.6619 16.0176L18.0925 22.1598C18.0425 22.2907 18.0025 22.4272 17.9789 22.5808Z" fill="#434240"/>
<path d="M18.0757 8.05138C17.3304 7.8316 16.929 7.72989 16.7253 7.71191C13.2021 9.75935 9.67912 11.8067 6.15592 13.8542C6.35965 13.8721 6.76105 13.9738 7.50627 14.1936C10.6771 12.351 14.9048 9.89406 18.0757 8.05138Z" fill="#21201F"/>
<path d="M17.2992 26.6872L27.8686 20.545L27.5166 19.9199L16.9472 26.0622L17.2992 26.6872Z" fill="#434240"/>
<path d="M22.237 10.0985C22.0765 10.0058 21.914 9.91321 21.7508 9.82129C18.2276 11.8687 14.7046 13.9161 11.1814 15.9635C11.3447 16.0555 11.5071 16.1481 11.6676 16.2408C11.8911 16.3698 12.1109 16.4989 12.3237 16.6261C15.8469 14.5787 19.3698 12.5313 22.893 10.4839C22.6802 10.3566 22.4605 10.2275 22.237 10.0985Z" fill="#21201F"/>
<path d="M29.3026 17.025C29.2471 17.0573 29.1132 17 28.9687 16.9165L18.3993 23.0588C18.5439 23.1422 18.6777 23.1995 18.7333 23.1672C21.9041 21.3246 26.1318 18.8677 29.3026 17.025Z" fill="#3DB44A"/>
<path d="M28.9821 16.3232C28.4936 16.6071 28.005 16.8911 27.5165 17.175C24.4818 18.9385 21.4474 20.702 18.4127 22.4654C18.543 22.6505 18.6384 22.7994 18.689 22.8993C18.7723 23.0627 18.7765 23.1421 18.7332 23.1672L29.3026 17.025C29.3459 16.9999 29.3417 16.9205 29.2584 16.757C29.2078 16.6572 29.1124 16.5083 28.9821 16.3232Z" fill="#21201F"/>
<path d="M16.7253 7.71192C16.6461 7.70494 16.5968 7.7106 16.5687 7.72689L5.99937 13.8691C6.02741 13.8528 6.07673 13.8472 6.15592 13.8542C9.67912 11.8067 13.2021 9.75936 16.7253 7.71192Z" fill="#21201F"/>
<path d="M28.9821 16.3235C28.9813 16.3225 28.9806 16.3214 28.9798 16.3203C27.9072 16.9437 26.8346 17.5671 25.762 18.1904C23.3115 19.6145 20.8611 21.0386 18.4105 22.4627C18.4112 22.4637 18.4119 22.4647 18.4127 22.4657C21.9359 20.4184 25.4589 18.371 28.9821 16.3235Z" fill="#21201F"/>
<path d="M19.7271 23.532C22.1575 24.949 24.6758 27.7464 25.4206 28.512C25.5652 28.6567 25.6377 28.8738 25.6377 29.0445L35.2406 23.4701L35.3751 23.3923L35.7422 23.1752L36.2075 22.9063C36.2075 22.777 35.9645 22.4099 35.7836 22.172C35.7215 22.0945 35.6697 22.0324 35.6336 21.9963C35.2871 21.6395 34.6303 20.9206 33.7771 20.1139C33.7305 20.0674 33.6789 20.0207 33.6271 19.9743C32.6859 19.0797 31.5224 18.1075 30.2969 17.3887L19.7271 23.532Z" fill="#3DB44A"/>
<path d="M30.2983 17.3881L19.729 23.5304C19.5825 23.3203 16.9219 19.5081 14.5459 17.6613L25.1154 11.519C27.4912 13.3658 30.1518 17.178 30.2983 17.3881Z" fill="url(#paint0_linear_307_9111)"/>
<path d="M15.0006 17.6936C16.7019 19.1157 18.4756 21.3859 19.3754 22.5959C19.6391 22.9529 20.0942 23.113 20.5234 22.9994C24.7069 21.8565 27.9285 20.2845 29.5213 17.9729C29.785 17.5903 29.7695 17.0836 29.4902 16.7111C28.5956 15.5115 26.8684 13.3085 25.2344 11.9435C25.1878 11.9071 25.1413 11.8657 25.0947 11.8296C23.0366 14.3998 19.3806 16.1165 15.2747 17.5954C15.1868 17.6264 15.0936 17.6626 15.0006 17.6936Z" fill="#21201F"/>
<path d="M29.4188 17.8957C28.5871 19.1073 27.2678 20.1542 25.4395 21.0647C24.9592 21.3013 24.4501 21.5308 23.8981 21.753C23.2026 22.0327 22.4569 22.2908 21.6467 22.5417C21.2739 22.6564 20.8939 22.764 20.4924 22.8715C20.4135 22.893 20.3275 22.9074 20.2414 22.9074C19.9403 22.9074 19.6607 22.764 19.4814 22.5202C19.209 22.1545 18.8648 21.6957 18.4633 21.1938C17.5599 20.0681 16.3984 18.7345 15.2584 17.7451C17.2803 17.0138 19.4097 16.1678 21.2811 15.078C22.7796 14.2247 24.1131 13.2138 25.1098 12.0093C25.4324 12.2746 25.755 12.5757 26.0777 12.8912C26.515 13.3213 26.9452 13.7874 27.3467 14.2533C27.6263 14.5689 27.8916 14.8772 28.1426 15.1855C28.6373 15.795 29.0675 16.3541 29.3901 16.7915C29.6339 17.1213 29.641 17.5659 29.4188 17.8957Z" fill="#434240"/>
<g opacity="0.1">
<path d="M26.0777 12.8912L21.6467 22.5417C21.2739 22.6564 20.8939 22.764 20.4924 22.8715C20.4135 22.893 20.3275 22.9074 20.2414 22.9074C19.9403 22.9074 19.6607 22.764 19.4814 22.5202C19.209 22.1545 18.8648 21.6957 18.4633 21.1938L21.2811 15.078C22.7796 14.2247 24.1131 13.2138 25.1098 12.0093C25.4324 12.2746 25.755 12.5757 26.0777 12.8912Z" fill="white"/>
<path d="M28.1426 15.1855L25.4395 21.0647C24.9592 21.3014 24.4501 21.5309 23.8981 21.7531L27.3467 14.2534C27.6263 14.5689 27.8916 14.8773 28.1426 15.1855Z" fill="white"/>
</g>
<path d="M15.254 17.7402C16.9089 19.1723 18.5997 21.334 19.4788 22.5182C19.6546 22.7613 19.9443 22.906 20.2442 22.906C20.3269 22.906 20.4096 22.8957 20.4924 22.875C25.0481 21.6339 27.9647 20.0051 29.4179 17.9002C29.6454 17.5642 29.635 17.1195 29.3868 16.7885C29.3196 16.6956 29.242 16.5973 29.1645 16.4888C29.3196 16.7988 29.304 17.1713 29.1024 17.4556C27.6544 19.5602 24.7328 21.1893 20.1821 22.4303C20.0994 22.451 20.0166 22.4614 19.9339 22.4614C19.6339 22.4614 19.3445 22.3164 19.1686 22.0735C18.367 20.9928 16.8932 19.1052 15.3833 17.6934C15.3419 17.7091 15.2954 17.7245 15.254 17.7402Z" fill="#21201F"/>
<path d="M11.3028 15.5855C8.8478 14.1679 5.94147 12.7228 4.32713 12.2668C7.40912 8.50481 10.9041 6.27222 14.8964 6.12451C16.5109 6.58052 19.4172 8.02592 21.8722 9.44319C22.985 10.0856 24.005 10.7224 24.7698 11.2589C24.8838 11.3387 24.9996 11.4291 25.1154 11.519L14.5459 17.6613C14.4303 17.5714 14.3145 17.481 14.2005 17.4012C13.4356 16.8646 12.4156 16.2278 11.3028 15.5855Z" fill="#3DB44A"/>
<path d="M4.46779 12.7886L4.32708 12.2666C5.94144 12.7228 8.84784 14.1679 11.3028 15.5853C12.4156 16.2277 13.4356 16.8645 14.2005 17.4009C16.656 19.1225 19.5753 23.3098 19.729 23.5302C22.1589 24.9482 24.6775 27.7475 25.4227 28.5121C25.5645 28.6548 25.6366 28.8752 25.6362 29.0459C25.944 29.817 25.9166 30.6283 25.6293 31.4701L17.2992 26.6873L16.9472 26.0622L2.6496 17.2109L1.79912 17.312C1.76238 15.5127 1.89898 14.1545 2.29313 13.4521C2.64448 13.1875 4.37663 12.8086 4.46779 12.7886ZM5.99213 14.0184C6.08406 14.2463 6.9905 15.313 7.31061 15.5548C7.63065 15.7927 8.80183 16.792 9.49522 17.1923C10.1885 17.5926 15.6212 21.3561 17.8991 22.7168C17.9124 22.7271 18.1636 22.9227 18.3993 23.0588C18.6563 23.2072 18.8794 23.2729 18.6891 22.8993C18.324 22.1793 15.6281 18.9053 14.2949 17.9038C13.746 17.4929 12.7517 16.8662 11.6676 16.2404C10.1189 15.3462 8.38674 14.4536 7.50627 14.1934C6.01271 13.7529 5.90021 13.7867 5.99213 14.0184Z" fill="url(#paint1_linear_307_9111)"/>
<path d="M6.92778 16.6668C6.61168 16.4843 6.35375 16.476 6.35326 16.6489C6.35276 16.8238 6.6099 17.1127 6.92599 17.2952C7.24205 17.4777 7.4983 17.4852 7.49879 17.3103C7.49928 17.1374 7.24383 16.8493 6.92778 16.6668Z" fill="url(#paint2_linear_307_9111)"/>
<path d="M13.0951 20.3558C12.779 20.1733 12.5211 20.1649 12.5206 20.3379C12.5201 20.5127 12.7772 20.8016 13.0933 20.9841C13.4094 21.1666 13.6656 21.1741 13.6661 20.9993C13.6666 20.8263 13.4112 20.5383 13.0951 20.3558Z" fill="url(#paint3_linear_307_9111)"/>
<path d="M18.0925 22.1597C17.1733 20.9413 15.3341 18.7927 14.2815 18.0025C13.8794 17.7017 13.2253 17.2748 12.4553 16.8101L12.867 19.3293C14.6425 20.5216 16.7142 21.9039 17.9028 22.6126C17.9061 22.6184 17.9325 22.6374 17.9721 22.6641L17.9789 22.5807C18.0025 22.4271 18.0425 22.2906 18.0925 22.1597Z" fill="#434240"/>
<path d="M11.6676 16.2404C12.7517 16.8663 13.746 17.4929 14.2949 17.9039C15.6281 18.9053 18.324 22.1793 18.6891 22.8993C18.8794 23.2729 18.6563 23.2072 18.3993 23.0588C18.1636 22.9227 17.9124 22.7271 17.8991 22.7169C15.6212 21.3561 10.1885 17.5926 9.49521 17.1923C8.80183 16.792 7.63065 15.7928 7.31061 15.5548C6.9905 15.3131 6.08406 14.2463 5.99213 14.0184C5.9002 13.7868 6.0127 13.753 7.50627 14.1935C8.38674 14.4536 10.1189 15.3463 11.6676 16.2404ZM7.32408 15.4562C7.37358 15.4939 7.44447 15.5494 7.53103 15.6188L7.49879 15.6597L8.40297 16.3527C8.40713 16.3441 8.41092 16.3342 8.41436 16.323C8.79308 16.6171 9.19092 16.9103 9.49551 17.0861C9.76384 17.241 10.7102 17.8771 11.9099 18.686L11.9114 18.7659L12.8786 19.4003L12.867 19.3293C14.6425 20.5216 16.7142 21.9038 17.9028 22.6126C17.9061 22.6184 17.9325 22.6373 17.9721 22.6641L17.9789 22.5807C18.0025 22.4271 18.0425 22.2906 18.0925 22.1597C17.1733 20.9412 15.3341 18.7927 14.2815 18.0025C13.8794 17.7017 13.2253 17.2748 12.4553 16.81L12.4397 16.7148L11.8653 16.3871L11.8667 16.4607C11.7984 16.4209 11.7297 16.381 11.6604 16.341C10.607 15.7328 9.31508 15.0389 8.34948 14.6193C8.34668 14.5956 8.34518 14.5834 8.3451 14.5827L8.32476 14.6087C8.02012 14.477 7.74887 14.3733 7.52909 14.3091C7.06981 14.1732 6.11816 13.8937 6.05834 13.9845C6.13719 14.1743 7.01058 15.222 7.32408 15.4562Z" fill="#21201F"/>
<path d="M6.05834 13.9847L6.08076 13.9717C6.08049 13.9718 6.0801 13.9718 6.07981 13.9719C6.07977 13.9719 6.07985 13.9718 6.07981 13.9719C6.07495 13.9732 6.07075 13.9749 6.06731 13.9769C6.06339 13.9791 6.06033 13.9817 6.05834 13.9847ZM7.94011 15.0984C7.73088 15.22 7.52534 15.3395 7.32409 15.4564L7.94011 15.0984Z" fill="#3DB44A"/>
<path d="M6.0669 13.977L6.25586 13.8672C6.25693 13.8674 6.25796 13.8675 6.25904 13.8677C6.25983 13.8678 6.26063 13.8679 6.26142 13.8681C6.19314 13.9069 6.12527 13.9458 6.05834 13.9847C6.06028 13.9817 6.06313 13.9792 6.0669 13.977Z" fill="#21201F"/>
<path d="M7.52909 14.3092C7.0698 14.1733 6.11816 13.8938 6.05833 13.9846C6.13719 14.1744 7.01058 15.2221 7.32408 15.4563C7.37358 15.494 7.44447 15.5495 7.53102 15.6189L8.32476 14.6089C8.02012 14.4771 7.74887 14.3735 7.52909 14.3092Z" fill="#434240"/>
<path d="M12.4397 16.715L11.8653 16.3872L11.8667 16.4608L11.9099 18.6861L11.9114 18.766L12.8786 19.4004L12.8669 19.3294L12.4553 16.8101L12.4397 16.715Z" fill="#21201F"/>
<path d="M25.6274 31.4697C30.6278 30.4873 33.9012 28.4652 35.7732 25.9004C35.8508 25.7918 35.9231 25.6779 35.98 25.559C36.1197 25.2901 36.1972 24.9954 36.2024 24.6904V24.0698L36.2075 23.6716V22.9062L35.7422 23.1752L35.3751 23.3873V23.3923L35.2406 23.4701L25.6377 29.0445C25.9432 29.7989 25.9179 30.611 25.6274 31.4697Z" fill="#3DB44A"/>
<path d="M7.4989 15.6615L8.40385 16.3544C8.40903 16.344 8.40903 16.3337 8.41421 16.3233C8.46597 16.1579 8.45044 15.7287 8.41938 15.3408L8.86921 14.8341L8.34704 14.5806L8.32634 14.6066L7.52996 15.6201L7.4989 15.6615Z" fill="#21201F"/>
<path d="M2.64959 17.2109L1.79905 17.3122L1.79246 17.423C1.79076 18.0224 2.21202 18.7519 2.73363 19.0531L24.4484 31.5901C24.7158 31.7445 24.9769 31.7812 25.1789 31.6927L25.4744 31.5528L25.6293 31.4701L17.2992 26.6874L16.9472 26.0623L2.64959 17.2109Z" fill="#2D2C2B"/>
<path d="M2.36152 13.4326C2.36152 13.4326 2.2884 13.9526 2.66215 14.1883C3.03591 14.4239 4.22218 14.952 3.9053 15.1551C3.58842 15.3583 2.4184 15.3339 2.02839 14.887C1.63839 14.4401 2.2559 13.4651 2.36152 13.4326Z" fill="#F25A5A"/>
<path d="M5.92203 18.6595C4.85016 18.0407 3.97976 18.5317 3.97448 19.7619C3.97089 20.995 4.83636 22.4939 5.90941 23.1134C6.97913 23.731 7.85026 23.2347 7.85375 22.0055C7.85546 20.7693 6.99069 19.2765 5.92203 18.6595Z" fill="#434240"/>
<path d="M5.91985 18.2594C5.21992 17.8553 4.59491 17.8592 4.17729 18.1844C3.83592 18.447 3.63283 18.9188 3.631 19.5637L3.97447 19.762C3.97976 18.5317 4.85015 18.0408 5.92203 18.6596C6.99068 19.2766 7.85546 20.7694 7.85376 22.0017L8.20045 22.2018C8.20209 21.6253 8.03854 20.9951 7.76239 20.4023C7.35154 19.5115 6.67593 18.6959 5.91985 18.2594Z" fill="#434240"/>
<path d="M20.6758 27.1556C19.604 26.5368 18.7336 27.0278 18.7283 28.258C18.7247 29.4911 19.5902 30.99 20.6632 31.6095C21.7329 32.2271 22.6041 31.7308 22.6076 30.5016C22.6093 29.2654 21.7445 27.7726 20.6758 27.1556Z" fill="#434240"/>
<path d="M20.6737 26.7555C19.9737 26.3514 19.3487 26.3553 18.9311 26.6805C18.5897 26.9431 18.3866 27.4149 18.3848 28.0597L18.7283 28.2581C18.7336 27.0278 19.604 26.5369 20.6758 27.1557C21.7445 27.7727 22.6093 29.2655 22.6076 30.4978L22.9543 30.6979C22.9559 30.1214 22.7924 29.4912 22.5162 28.8984C22.1054 28.0076 21.4297 27.192 20.6737 26.7555Z" fill="#434240"/>
<path d="M4.31502 19.9572C4.31033 20.9652 5.0228 22.2073 5.89457 22.7135C5.89926 22.7135 5.90396 22.7181 5.90865 22.7229C5.91803 22.7275 5.92272 22.7275 5.93211 22.7321C6.7993 23.2338 7.51647 22.8259 7.51647 21.8088C7.51647 20.7917 6.80857 19.559 5.92272 19.0479C5.02749 18.5277 4.3244 18.9543 4.31502 19.9572ZM4.8072 19.6668L4.84932 19.7558C4.83066 19.8025 4.81647 19.8588 4.77905 19.873C4.76967 19.8824 4.75559 19.8824 4.74152 19.873C4.71806 19.8588 4.69929 19.8213 4.69929 19.7792C4.71348 19.7465 4.73214 19.6995 4.7509 19.648C4.75559 19.6245 4.76967 19.6199 4.77905 19.6245C4.78844 19.6339 4.79782 19.648 4.8072 19.6668ZM5.49622 19.3434C5.63675 19.6105 5.68836 19.8682 5.68367 20.1074C5.68367 20.2667 5.58525 20.3418 5.43523 20.2573C5.37904 20.2058 5.32274 20.1589 5.27124 20.1074C5.10714 19.9527 4.95712 19.7792 4.83993 19.5636L4.83524 19.4979C4.9665 19.3198 5.14937 19.2308 5.38842 19.2496C5.40719 19.2496 5.42115 19.2542 5.43054 19.259C5.45869 19.2777 5.47276 19.3011 5.49622 19.3434ZM5.80554 19.4089C5.80554 19.4794 5.76331 19.4698 5.70713 19.451C5.68367 19.4418 5.6649 19.4324 5.65094 19.4276C5.6134 19.4043 5.60402 19.3761 5.56649 19.2729C5.64155 19.2965 5.71182 19.3198 5.78208 19.3526L5.80554 19.4089ZM6.69139 20.234C6.61174 20.4589 6.44775 20.5525 6.22266 20.534C6.19931 20.534 6.17116 20.5198 6.14301 20.5056C6.0446 20.4496 5.95087 20.3182 5.92272 20.187C5.89457 20.0369 5.87592 19.887 5.85715 19.7558C5.87111 19.648 5.8805 19.5636 5.89926 19.4794C5.90865 19.4464 5.91803 19.4183 5.96495 19.4464C5.96495 19.4464 5.96964 19.4464 5.96964 19.451C6.23204 19.6151 6.47121 19.8495 6.67743 20.1541L6.69139 20.234ZM6.96329 20.6416H6.92117V20.637C6.86487 20.6043 6.77584 20.4496 6.78522 20.412L6.82276 20.3511L6.87895 20.426L6.94452 20.5573L6.96329 20.6416ZM7.16011 21.7713L7.12739 21.7946C7.07108 21.7713 7.0149 21.7479 6.96329 21.7198C6.9539 21.715 6.94452 21.7104 6.93513 21.701C6.80399 21.6166 6.68212 21.49 6.56024 21.3495C6.40083 21.162 6.34465 20.951 6.42899 20.8432C6.45245 20.8151 6.49456 20.7963 6.53209 20.7823C6.66804 20.726 6.81795 20.7121 6.99613 20.7729C7.00082 20.7775 7.00551 20.7775 7.0149 20.7823C7.03836 20.7963 7.05232 20.8199 7.06639 20.8572C7.14615 21.0963 7.18827 21.3213 7.19296 21.5417C7.18357 21.6214 7.1743 21.6962 7.16011 21.7713ZM7.05712 22.1228C7.01959 22.0901 6.99613 22.0105 7.0102 21.9775L7.02897 21.9306C7.03366 21.8839 7.0617 21.8697 7.09454 21.8885C7.09924 21.8885 7.09924 21.8933 7.10393 21.8978C7.11331 21.8978 7.118 21.9027 7.12269 21.9072C7.15554 21.926 7.1695 21.9402 7.15554 21.9729C7.13677 22.0244 7.118 22.0713 7.09454 22.1183L7.05712 22.1228ZM6.34922 22.4089C6.19931 22.1183 6.1477 21.8464 6.16178 21.5978C6.17116 21.4573 6.28365 21.4104 6.39614 21.476C6.41022 21.4806 6.4196 21.49 6.43368 21.4994C6.66335 21.6916 6.86956 21.926 7.02897 22.2354C7.00551 22.2634 6.98205 22.2869 6.96329 22.3103C6.82276 22.4462 6.64458 22.5073 6.42429 22.4744C6.41491 22.4744 6.40553 22.4744 6.39614 22.4698C6.37738 22.4556 6.3633 22.4368 6.34922 22.4089ZM6.05867 22.3901C6.05398 22.2682 6.07744 22.2588 6.2087 22.3197H6.21339C6.24612 22.3384 6.27896 22.4041 6.28834 22.4744C6.21339 22.4462 6.13832 22.4229 6.05867 22.3901ZM5.9368 21.0448C5.86184 21.0027 5.79616 20.8947 5.80085 20.8105C5.80085 20.7308 5.86654 20.6885 5.9368 20.7308C6.00706 20.7729 6.07275 20.8807 6.07275 20.9652C6.07744 21.0542 6.01175 21.0915 5.9368 21.0448ZM5.18679 21.4667L5.20086 21.4431C5.27593 21.298 5.40719 21.2323 5.56179 21.2135C5.60871 21.2087 5.66021 21.2229 5.70713 21.2463C5.81492 21.3119 5.90865 21.4479 5.9368 21.5838C5.96495 21.7292 5.97903 21.8745 6.00248 22.0105C5.98829 22.1089 5.96964 22.1931 5.96026 22.2775C5.95087 22.329 5.92742 22.3245 5.8853 22.3009C5.65552 22.1604 5.4493 21.9635 5.25717 21.715C5.15406 21.579 5.14937 21.5651 5.18679 21.4667ZM4.9197 21.1478L5.00873 21.176C5.08837 21.2556 5.11652 21.3822 5.06503 21.4573C5.01811 21.3776 4.98057 21.3074 4.94304 21.2371L4.9197 21.1478ZM4.65249 20.0323C4.65249 19.976 4.68064 19.9714 4.71806 19.9854C4.77436 20.0042 4.82586 20.0277 4.87747 20.0557C5.03219 20.1449 5.1774 20.2854 5.31805 20.4496C5.4493 20.6043 5.49622 20.8338 5.41177 20.9089C5.27124 21.0307 5.09776 21.0776 4.87747 21.0213C4.86808 21.0167 4.86339 21.0167 4.85401 21.0119C4.83524 20.9979 4.82586 20.9792 4.8119 20.9464C4.7041 20.6745 4.65249 20.4168 4.65249 20.1728C4.65249 20.1262 4.65718 20.0838 4.65249 20.0323Z" fill="white"/>
<path d="M19.0447 28.4572C19.04 29.4652 19.7524 30.7073 20.6242 31.2135C20.6289 31.2135 20.6336 31.2181 20.6383 31.2229C20.6477 31.2275 20.6524 31.2275 20.6618 31.2321C21.5289 31.7338 22.2461 31.3259 22.2461 30.3088C22.2461 29.2917 21.5382 28.059 20.6524 27.5479C19.7571 27.0277 19.054 27.4543 19.0447 28.4572ZM19.5369 28.1668L19.579 28.2558C19.5603 28.3025 19.5461 28.3588 19.5087 28.373C19.4993 28.3824 19.4852 28.3824 19.4712 28.373C19.4477 28.3588 19.4289 28.3213 19.4289 28.2792C19.4431 28.2465 19.4618 28.1995 19.4805 28.148C19.4852 28.1245 19.4993 28.1199 19.5087 28.1245C19.5181 28.1339 19.5275 28.148 19.5369 28.1668ZM20.2259 27.8434C20.3664 28.1105 20.418 28.3682 20.4133 28.6074C20.4133 28.7667 20.3149 28.8418 20.1649 28.7573C20.1087 28.7058 20.0524 28.6589 20.0009 28.6074C19.8368 28.4527 19.6868 28.2792 19.5696 28.0636L19.5649 27.9979C19.6961 27.8198 19.879 27.7308 20.1181 27.7496C20.1368 27.7496 20.1508 27.7542 20.1602 27.759C20.1883 27.7777 20.2024 27.8011 20.2259 27.8434ZM20.5352 27.9089C20.5352 27.9794 20.493 27.9698 20.4368 27.951C20.4133 27.9418 20.3945 27.9324 20.3806 27.9276C20.343 27.9043 20.3337 27.8761 20.2961 27.7729C20.3712 27.7965 20.4415 27.8198 20.5117 27.8526L20.5352 27.9089ZM21.421 28.734C21.3414 28.9589 21.1774 29.0525 20.9523 29.034C20.929 29.034 20.9008 29.0198 20.8727 29.0056C20.7742 28.9496 20.6805 28.8182 20.6524 28.687C20.6242 28.5369 20.6056 28.387 20.5868 28.2558C20.6008 28.148 20.6101 28.0636 20.6289 27.9794C20.6383 27.9464 20.6477 27.9183 20.6946 27.9464C20.6946 27.9464 20.6993 27.9464 20.6993 27.951C20.9617 28.1151 21.2009 28.3494 21.4071 28.6541L21.421 28.734ZM21.6929 29.1416H21.6508V29.137C21.5945 29.1043 21.5055 28.9496 21.5149 28.912L21.5524 28.8511L21.6086 28.926L21.6742 29.0574L21.6929 29.1416ZM21.8898 30.2713L21.857 30.2946C21.8007 30.2713 21.7445 30.2479 21.6929 30.2198C21.6835 30.215 21.6742 30.2104 21.6648 30.201C21.5336 30.1166 21.4118 29.99 21.2899 29.8495C21.1305 29.662 21.0743 29.451 21.1586 29.3432C21.1821 29.3151 21.2242 29.2963 21.2617 29.2823C21.3977 29.226 21.5476 29.2121 21.7258 29.2729C21.7305 29.2775 21.7352 29.2775 21.7445 29.2823C21.768 29.2963 21.782 29.3199 21.796 29.3572C21.8758 29.5963 21.9179 29.8213 21.9226 30.0417C21.9132 30.1214 21.9039 30.1962 21.8898 30.2713ZM21.7868 30.6228C21.7492 30.5901 21.7258 30.5105 21.7398 30.4775L21.7586 30.4306C21.7633 30.3839 21.7913 30.3697 21.8242 30.3885C21.8289 30.3885 21.8289 30.3933 21.8336 30.3978C21.843 30.3978 21.8476 30.4027 21.8523 30.4072C21.8852 30.426 21.8991 30.4402 21.8852 30.4729C21.8664 30.5244 21.8476 30.5713 21.8242 30.6182L21.7868 30.6228ZM21.0789 30.9089C20.929 30.6182 20.8773 30.3464 20.8914 30.0978C20.9008 29.9573 21.0133 29.9104 21.1258 29.976C21.1399 29.9806 21.1492 29.99 21.1633 29.9994C21.393 30.1916 21.5992 30.426 21.7586 30.7354C21.7352 30.7634 21.7117 30.7869 21.6929 30.8103C21.5524 30.9462 21.3742 31.0073 21.1539 30.9744C21.1446 30.9744 21.1352 30.9744 21.1258 30.9698C21.107 30.9556 21.0929 30.9368 21.0789 30.9089ZM20.7883 30.8901C20.7836 30.7682 20.8071 30.7588 20.9383 30.8197H20.943C20.9758 30.8384 21.0086 30.9041 21.018 30.9744C20.943 30.9462 20.868 30.9229 20.7883 30.8901ZM20.6664 29.5448C20.5915 29.5027 20.5258 29.3947 20.5305 29.3105C20.5305 29.2308 20.5962 29.1885 20.6664 29.2308C20.7367 29.2729 20.8024 29.3807 20.8024 29.4652C20.8071 29.5542 20.7414 29.5915 20.6664 29.5448ZM19.9164 29.9667L19.9305 29.9431C20.0056 29.798 20.1368 29.7323 20.2914 29.7135C20.3384 29.7087 20.3899 29.7229 20.4368 29.7463C20.5446 29.8119 20.6383 29.9479 20.6664 30.0838C20.6946 30.2292 20.7087 30.3745 20.7321 30.5105C20.7179 30.6089 20.6993 30.6931 20.6899 30.7775C20.6805 30.829 20.6571 30.8245 20.6149 30.8009C20.3852 30.6604 20.1789 30.4635 19.9868 30.215C19.8837 30.079 19.879 30.0651 19.9164 29.9667ZM19.6493 29.6478L19.7384 29.676C19.818 29.7556 19.8462 29.8822 19.7947 29.9573C19.7478 29.8776 19.7102 29.8074 19.6727 29.7371L19.6493 29.6478ZM19.3821 28.5323C19.3821 28.476 19.4103 28.4714 19.4477 28.4854C19.504 28.5042 19.5555 28.5277 19.6071 28.5557C19.7618 28.6449 19.907 28.7854 20.0477 28.9496C20.1789 29.1043 20.2259 29.3338 20.1414 29.4089C20.0009 29.5307 19.8274 29.5776 19.6071 29.5213C19.5977 29.5167 19.593 29.5167 19.5837 29.5119C19.5649 29.4979 19.5555 29.4792 19.5415 29.4464C19.4337 29.1745 19.3821 28.9168 19.3821 28.6728C19.3821 28.6262 19.3868 28.5838 19.3821 28.5323Z" fill="white"/>
<path d="M33.1902 27.5853C33.2318 27.5525 33.2869 27.4709 33.3518 27.3613L29.961 29.319C30.0414 29.3447 30.1118 29.3538 30.1561 29.3372C31.1623 29.01 32.6989 28.0279 33.1902 27.5853Z" fill="#21201F"/>
<path d="M29.8188 29.2707C29.8726 29.289 29.9192 29.3073 29.961 29.3192L33.3518 27.3615C33.3826 27.3078 33.4152 27.2437 33.4473 27.1758L29.8188 29.2707Z" fill="#434240"/>
<path d="M33.4473 27.1756C33.5074 27.0597 33.5714 26.9235 33.6314 26.7852L29.5572 29.1374C29.6491 29.188 29.737 29.2365 29.8188 29.2705L33.4473 27.1756Z" fill="#21201F"/>
<path d="M29.4487 29.0739C29.4854 29.0979 29.5212 29.1176 29.5572 29.1374L33.6314 26.7852L33.6979 26.6206L29.4487 29.0739Z" fill="#434240"/>
<path d="M33.6979 26.6208C33.7494 26.4965 33.7943 26.3759 33.8358 26.2573L29.2169 28.924C29.2908 28.976 29.3689 29.0302 29.4487 29.0741L33.6979 26.6208Z" fill="#21201F"/>
<path d="M29.1176 28.8505L29.2169 28.9239L33.8358 26.2572L33.8983 26.0903L29.1176 28.8505Z" fill="#434240"/>
<path d="M33.8983 26.0901C33.9392 25.9674 33.9761 25.8425 34.0033 25.7456L28.922 28.6792C28.9807 28.7265 29.0462 28.7924 29.1176 28.8502L33.8983 26.0901Z" fill="#21201F"/>
<path d="M28.8498 28.5951L28.922 28.6796L34.0032 25.7459L34.0432 25.5967L28.8498 28.5951Z" fill="#434240"/>
<path d="M29.2365 27.4073C29.2333 27.412 29.1728 27.5025 29.0889 27.6277L33.5461 25.0543C33.4386 25.0396 33.3611 25.0289 33.357 25.0283L29.2365 27.4073Z" fill="#21201F"/>
<path d="M29.0889 27.6276C29.0515 27.6851 29.0122 27.7528 28.973 27.8207L33.7008 25.091C33.6444 25.0784 33.5945 25.0622 33.5461 25.0542L29.0889 27.6276Z" fill="#434240"/>
<path d="M28.7444 28.399C28.7427 28.454 28.783 28.5207 28.8498 28.5948L34.0432 25.5964C34.0721 25.467 34.0815 25.3716 34.0666 25.3262L34.0551 25.3013L28.7461 28.3664L28.7444 28.399Z" fill="#21201F"/>
<path d="M28.7795 28.2209C28.7634 28.2755 28.7457 28.3217 28.7461 28.3667L34.0551 25.3015C34.0382 25.266 34.0162 25.2428 33.9795 25.2188L28.7795 28.2209Z" fill="#434240"/>
<path d="M28.973 27.821C28.8969 27.9504 28.8197 28.0943 28.7796 28.2209L33.9795 25.2187C33.9076 25.1568 33.8064 25.1159 33.7008 25.0913L28.973 27.821Z" fill="#21201F"/>
<path d="M27.9921 28.2991C27.9921 28.2991 27.9216 29.0678 27.4668 29.1639C27.012 29.26 25.9422 29.1511 25.7884 29.1639C25.6347 29.1767 24.046 27.6521 23.8282 27.3253C23.6104 26.9986 23.7513 26.6655 23.7513 26.6655C23.7513 26.6655 26.8775 28.3823 27.9921 28.2991Z" fill="#E9E8E6"/>
<path d="M35.3751 23.3923C35.3647 23.5941 35.3285 23.7801 35.2458 23.9612C35.2458 23.9612 35.6801 24.1422 35.7938 24.018C35.8559 23.9508 36.0731 23.6819 36.2075 23.3976V22.9062C36.2075 22.777 35.9645 22.4098 35.7836 22.172C35.7215 22.0945 35.6697 22.0323 35.6336 21.9962C35.2871 21.6395 34.6303 20.9206 33.7771 20.1139C33.7668 20.1088 33.7512 20.1035 33.7409 20.1035C33.8391 20.2121 35.4267 21.9859 35.3751 23.3873V23.3923Z" fill="#E9E8E6"/>
<path d="M26.5854 29.6925C26.1702 30.0653 25.981 30.489 26.1894 31.0135C26.5242 30.9457 26.8625 30.8605 27.2047 30.7464C27.2486 30.7317 27.2928 30.7166 27.3369 30.701C27.4237 30.672 27.5143 30.6375 27.6019 30.5838C27.8576 30.4284 28.057 30.1398 28.2417 29.8643L28.2642 29.7291C28.0202 29.5513 27.6759 29.5838 27.3493 29.6188C27.0948 29.6419 26.84 29.6693 26.5854 29.6925Z" fill="#3DB44A"/>
<path d="M34.8114 25.5068L34.8476 25.631C35.044 25.75 35.2612 25.8689 35.5043 25.8068C35.587 25.781 35.6697 25.7396 35.7474 25.6932C35.7886 25.6724 35.8301 25.6467 35.8715 25.626C35.9076 25.6053 35.9438 25.5846 35.98 25.5586C36.1197 25.2897 36.1972 24.995 36.2024 24.69V24.0693C36.0007 24.2504 35.7938 24.4261 35.5922 24.6072C35.3026 24.8503 34.9976 25.119 34.8114 25.5068Z" fill="#3DB44A"/>
<path d="M27.1891 28.4098C27.0703 28.4784 26.9936 28.655 27.0188 28.8044C27.0437 28.9522 27.1613 29.0184 27.2801 28.9498C27.4002 28.8805 27.4778 28.7016 27.4529 28.5537C27.4277 28.4044 27.3091 28.3405 27.1891 28.4098Z" fill="#FFD651"/>
<path d="M35.682 23.1954C35.5631 23.264 35.4865 23.4407 35.5117 23.59C35.5366 23.7379 35.6542 23.804 35.773 23.7354C35.8931 23.6661 35.9707 23.4873 35.9457 23.3394C35.9206 23.19 35.802 23.1261 35.682 23.1954Z" fill="#FFD651"/>
<path d="M26.1598 28.0771C25.942 28.2028 25.8015 28.5265 25.8477 28.8001C25.8934 29.0711 26.1088 29.1924 26.3266 29.0667C26.5466 28.9396 26.6888 28.6119 26.6431 28.3409C26.597 28.0672 26.3798 27.9501 26.1598 28.0771Z" fill="#FFD651"/>
<path d="M18.8598 23.6273L18.6053 23.4794L18.9755 23.2656L19.2301 23.4135L18.8598 23.6273Z" fill="#434240"/>
<path d="M18.8252 23.5297C18.8053 23.5178 18.7775 23.5217 18.7418 23.5416L17.7766 24.0976C17.7131 24.1334 17.6615 24.2207 17.6615 24.2962L17.6654 24.884C17.6654 24.9197 17.6774 24.9475 17.6972 24.9595L17.4433 24.8127C17.4234 24.8008 17.4115 24.773 17.4115 24.7372L17.4075 24.1454C17.4075 24.074 17.4592 23.9866 17.5227 23.9508L18.4878 23.3908C18.5236 23.375 18.5514 23.371 18.5712 23.3829L18.8252 23.5297Z" fill="#434240"/>
<path d="M18.7427 23.5402C18.8087 23.5022 18.8596 23.5312 18.8598 23.604L18.8598 23.6273L19.2301 23.4136L19.2305 23.5651L18.8603 23.7788L18.8614 24.1926C18.8616 24.2684 18.8111 24.3559 18.7452 24.394L17.779 24.9518C17.7156 24.9884 17.6648 24.9594 17.6645 24.8836L17.6629 24.295C17.6627 24.2222 17.7132 24.1346 17.7766 24.098L18.7427 23.5402Z" fill="#2D2C2B"/>
<path d="M19.5633 18.3881C19.337 18.4619 19.1353 18.5898 18.973 18.757C18.8058 18.9292 18.6779 19.1308 18.6041 19.3522C18.5746 19.4259 18.4812 19.4259 18.4517 19.3522C18.3041 18.8948 17.95 18.5357 17.4925 18.3881C17.4187 18.3685 17.4187 18.2701 17.4925 18.2455C17.7188 18.1668 17.9204 18.0438 18.0926 17.8766C18.25 17.7143 18.3779 17.5077 18.4517 17.2863C18.4812 17.2027 18.5746 17.2027 18.6041 17.2863C18.6779 17.5077 18.8058 17.7143 18.973 17.8766C19.1353 18.0438 19.337 18.1668 19.5633 18.2455C19.6371 18.2701 19.6371 18.3685 19.5633 18.3881Z" fill="white"/>
</g>
</g>
<defs>
<filter id="filter0_d_307_9111" x="-2.20755" y="6.12451" width="42.4151" height="33.7505" filterUnits="userSpaceOnUse" color-interpolation-filters="sRGB">
<feFlood flood-opacity="0" result="BackgroundImageFix"/>
<feColorMatrix in="SourceAlpha" type="matrix" values="0 0 0 0 0 0 0 0 0 0 0 0 0 0 0 0 0 0 127 0" result="hardAlpha"/>
<feOffset dy="4"/>
<feGaussianBlur stdDeviation="2"/>
<feComposite in2="hardAlpha" operator="out"/>
<feColorMatrix type="matrix" values="0 0 0 0 0 0 0 0 0 0 0 0 0 0 0 0 0 0 0.07 0"/>
<feBlend mode="normal" in2="BackgroundImageFix" result="effect1_dropShadow_307_9111"/>
<feBlend mode="normal" in="SourceGraphic" in2="effect1_dropShadow_307_9111" result="shape"/>
</filter>
<linearGradient id="paint0_linear_307_9111" x1="22.4221" y1="11.519" x2="22.4221" y2="23.5304" gradientUnits="userSpaceOnUse">
<stop stop-color="#3DB44A"/>
<stop offset="1" stop-color="#1B6D24"/>
</linearGradient>
<linearGradient id="paint1_linear_307_9111" x1="13.8247" y1="12.2666" x2="13.8247" y2="31.4701" gradientUnits="userSpaceOnUse">
<stop stop-color="#3DB44A"/>
<stop offset="1" stop-color="#1B6D24"/>
</linearGradient>
<linearGradient id="paint2_linear_307_9111" x1="6.92603" y1="16.5244" x2="6.92603" y2="17.4369" gradientUnits="userSpaceOnUse">
<stop stop-color="#3DB44A"/>
<stop offset="1" stop-color="#1B6D24"/>
</linearGradient>
<linearGradient id="paint3_linear_307_9111" x1="13.0934" y1="20.2134" x2="13.0934" y2="21.1258" gradientUnits="userSpaceOnUse">
<stop stop-color="#3DB44A"/>
<stop offset="1" stop-color="#1B6D24"/>
</linearGradient>
<clipPath id="clip0_307_9111">
<rect width="38" height="38" fill="white"/>
</clipPath>
</defs>
</svg>
