<svg width="35" height="35" viewBox="0 0 35 35" fill="none" xmlns="http://www.w3.org/2000/svg">
<g clip-path="url(#clip0_78_4086)">
<path d="M34.6993 22.1002L33.5813 21.5093V22.6423L34.6993 22.1002Z" fill="#3DB44A"/>
<path d="M9.42746 22.1984L5.81643 19.6578C5.28504 18.3302 4.40011 17.1502 3.39768 16.5713C1.77281 15.6332 0.455292 16.6292 0.455292 18.7956C0.455292 20.9623 1.77281 23.4793 3.39768 24.4176C4.16779 24.8622 4.86874 24.8718 5.39319 24.5287L9.42746 22.1984Z" fill="#23292E"/>
<path d="M23.1108 30.1963L19.4998 27.6558C18.9684 26.3281 18.0835 25.1481 17.081 24.5695C15.4559 23.6311 14.1386 24.6271 14.1386 26.7938C14.1386 28.9605 15.4559 31.4775 17.081 32.4156C17.8514 32.8604 18.5521 32.8698 19.0765 32.5266L23.1108 30.1963Z" fill="#23292E"/>
<g filter="url(#filter0_d_78_4086)">
<path d="M34.1735 22.1127L34.0737 22.1703C33.7556 20.5321 32.95 19.0141 31.7436 17.826L28.9457 15.0708L28.3617 13.9832C26.8935 11.2489 24.69 8.97938 22 7.43088L13.0091 2.25586L1.56052 8.89206L1.35677 11.0718C0.465164 12.7934 0 14.7037 0 16.6423V17.0372C0 18.449 0.752487 19.7537 1.97468 20.4608L20.727 31.3089C20.7431 31.319 20.7588 31.3294 20.7754 31.3388C20.8039 31.3553 20.8331 31.3711 20.8622 31.3871L20.9588 31.4429C20.9938 31.4632 21.0293 31.4808 21.0651 31.4971C21.0739 31.5011 21.0827 31.5049 21.0915 31.5089C21.1222 31.5219 21.153 31.5337 21.1837 31.5441C21.1877 31.5454 21.1917 31.5476 21.1957 31.5489C22.3487 32.044 23.6782 31.9732 24.7803 31.3364L33.3858 26.3622C34.3848 25.7848 35 24.7183 35 23.5645V22.5896C35 22.1655 34.5407 21.9004 34.1735 22.1127Z" fill="url(#paint0_linear_78_4086)"/>
</g>
<path d="M34.1735 22.1127L24.0636 27.9566C23.5875 28.2317 23.0526 28.3588 22.5212 28.3403C22.15 26.8813 21.3863 25.5371 20.295 24.4625L17.4973 21.7071L16.9133 20.6197C15.4449 17.8851 13.2414 15.6156 10.5516 14.0674L1.56052 8.89209L1.35651 11.0718C0.465164 12.7934 0 14.7037 0 16.6423V17.0373C0 18.4491 0.752487 19.7538 1.97468 20.4608L20.7268 31.3089C20.7431 31.319 20.7588 31.3295 20.7751 31.3388C20.8039 31.3554 20.8331 31.3711 20.8622 31.3871L20.9588 31.4429C21.0363 31.4878 21.1156 31.5228 21.1957 31.549C22.3487 32.044 23.6782 31.9735 24.7803 31.3364L33.3858 26.3622C34.3848 25.7849 35 24.7184 35 23.5645V22.5896C35 22.1656 34.5407 21.9004 34.1735 22.1127Z" fill="#3DB44A"/>
<path d="M20.0234 30.1916C20.0234 32.3583 18.7059 33.3543 17.081 32.4159C15.4559 31.4779 14.1386 28.9609 14.1386 26.7942C14.1386 24.6275 15.4559 23.6318 17.081 24.5698C18.7059 25.5079 20.0234 28.0249 20.0234 30.1916Z" fill="#2E373D"/>
<path d="M18.5275 29.3277C18.5275 30.3932 17.88 30.8826 17.081 30.4215C16.2821 29.96 15.6343 28.7226 15.6343 27.6574C15.6343 26.592 16.2821 26.1025 17.081 26.5637C17.88 27.0251 18.5275 28.2625 18.5275 29.3277Z" fill="#CECECE"/>
<path d="M17.8656 28.9458C17.8656 29.5237 17.5144 29.7891 17.081 29.5389C16.6477 29.2887 16.2965 28.6177 16.2965 28.0398C16.2965 27.462 16.6477 27.1965 17.081 27.4467C17.5144 27.6969 17.8656 28.368 17.8656 28.9458Z" fill="#627681"/>
<path d="M6.34007 22.1933C6.34007 24.36 5.02255 25.356 3.39768 24.4176C1.77281 23.4796 0.455292 20.9625 0.455292 18.7956C0.455292 16.6292 1.77281 15.6332 3.39768 16.5713C5.02282 17.5096 6.34007 20.0266 6.34007 22.1933Z" fill="#2E373D"/>
<path d="M4.84443 21.3298C4.84443 22.395 4.19662 22.8847 3.39767 22.4235C2.59872 21.9621 1.95117 20.7247 1.95117 19.6592C1.95117 18.5941 2.59872 18.1043 3.39767 18.5658C4.19662 19.0269 4.84443 20.2646 4.84443 21.3298Z" fill="#CECECE"/>
<path d="M4.18222 20.9475C4.18222 21.5251 3.83108 21.7908 3.39769 21.5406C2.9643 21.2904 2.61316 20.6193 2.61316 20.0415C2.61316 19.4636 2.9643 19.1979 3.39769 19.4482C3.83108 19.6984 4.18222 20.3697 4.18222 20.9475Z" fill="#627681"/>
<path d="M18.1046 21.3563L28.3934 15.393L26.0911 11.963C25.4991 11.0805 24.3229 10.8108 23.4053 11.3467L17.0087 15.0838C16.0033 15.6713 15.6524 16.9546 16.2191 17.9717L18.1046 21.3563Z" fill="#304E75"/>
<path d="M33.5928 20.5718L31.8894 21.5646C31.6413 21.7093 31.4888 21.975 31.4888 22.2621V23.6706L34.0745 22.1777C33.9677 21.6263 33.8064 21.0882 33.5928 20.5718Z" fill="white"/>
<path d="M33.5735 22.4669L34.0742 22.1777C33.9677 21.626 33.8064 21.0882 33.5925 20.5718L33.0939 20.8623C33.3041 21.3795 33.4646 21.9165 33.5735 22.4669Z" fill="#EF9910"/>
<path d="M23.224 28.4422L25.1119 27.3522V26.412C25.1119 25.9917 24.6569 25.7292 24.293 25.9391L22.6705 26.8761C22.3391 27.067 21.9314 27.067 21.6002 26.8761L20.502 26.2419C20.502 27.0627 20.9404 27.8211 21.6518 28.231L22.02 28.443C22.3928 28.6574 22.8515 28.6572 23.224 28.4422Z" fill="white"/>
<path d="M22.0569 27.0094C21.8988 26.9976 21.742 26.9581 21.6002 26.8764L20.502 26.2422C20.502 27.063 20.9404 27.8214 21.6518 28.2313L22.02 28.4433C22.1941 28.5434 22.3869 28.595 22.5808 28.6014C22.4601 28.0532 22.2841 27.5202 22.0569 27.0094Z" fill="#EF9910"/>
<path d="M18.1046 21.3564L24.2929 25.9391L31.8894 21.5646L28.3934 15.3931L18.1046 21.3564Z" fill="#3DB44A"/>
<path d="M9.03253 17.3939L16.5451 21.6349L14.3707 18.5416C13.7232 17.6209 12.8826 16.8521 11.9076 16.2892L9.03253 14.6294V17.3939Z" fill="#243B58"/>
<path d="M27.536 15.2383L25.3613 12.1455C25.09 11.7597 24.7832 11.4024 24.4486 11.074C24.0935 11.0686 23.733 11.1557 23.4053 11.3469L22.0475 12.1402L27.536 15.2383Z" fill="#59718B"/>
<path d="M8.02528 14.0479L4.83028 12.2033C3.95816 11.6996 2.84198 12.0751 2.45132 13.0033L2.22141 13.5491L8.02528 16.8255V14.0479Z" fill="#243B58"/>
</g>
<defs>
<filter id="filter0_d_78_4086" x="-4" y="2.25586" width="43" height="37.6177" filterUnits="userSpaceOnUse" color-interpolation-filters="sRGB">
<feFlood flood-opacity="0" result="BackgroundImageFix"/>
<feColorMatrix in="SourceAlpha" type="matrix" values="0 0 0 0 0 0 0 0 0 0 0 0 0 0 0 0 0 0 127 0" result="hardAlpha"/>
<feOffset dy="4"/>
<feGaussianBlur stdDeviation="2"/>
<feComposite in2="hardAlpha" operator="out"/>
<feColorMatrix type="matrix" values="0 0 0 0 0 0 0 0 0 0 0 0 0 0 0 0 0 0 0.07 0"/>
<feBlend mode="normal" in2="BackgroundImageFix" result="effect1_dropShadow_78_4086"/>
<feBlend mode="normal" in="SourceGraphic" in2="effect1_dropShadow_78_4086" result="shape"/>
</filter>
<linearGradient id="paint0_linear_78_4086" x1="17.5" y1="2.25586" x2="17.5" y2="31.8738" gradientUnits="userSpaceOnUse">
<stop stop-color="#3DB44A"/>
<stop offset="1" stop-color="#1B6D24"/>
</linearGradient>
<clipPath id="clip0_78_4086">
<rect width="35" height="35" fill="white"/>
</clipPath>
</defs>
</svg>
