<svg width="114" height="100" viewBox="0 0 114 100" fill="none" xmlns="http://www.w3.org/2000/svg">
<path d="M24.6334 70.7272L24.6125 61.7455L20.1508 69.1446H18.5691L14.1307 61.9382V70.7272H10.8395V55.7593H13.7405L19.4146 65.062L25.0004 55.7593H27.8804L27.9246 70.7272H24.6334Z" fill="white"/>
<path d="M41.5001 67.5185H34.4627L33.1202 70.7272H29.5248L36.2813 55.7593H39.7466L46.5239 70.7272H42.8426L41.5001 67.5185ZM40.3969 64.8877L37.993 59.1561L35.5891 64.8877H40.3969Z" fill="white"/>
<path d="M49.6107 70.5023C48.4912 70.1812 47.5923 69.7638 46.9141 69.2523L48.1056 66.6445C48.7559 67.1147 49.527 67.4932 50.4236 67.7776C51.3178 68.062 52.2143 68.2042 53.1085 68.2042C54.1049 68.2042 54.8411 68.0574 55.3173 67.7661C55.7934 67.4748 56.0326 67.0849 56.0326 66.601C56.0326 66.2455 55.891 65.9496 55.6099 65.7134C55.3289 65.4771 54.9666 65.289 54.5276 65.1468C54.0863 65.0046 53.4917 64.8464 52.7415 64.6767C51.5872 64.406 50.6419 64.1354 49.9056 63.8647C49.1694 63.5941 48.5376 63.1583 48.0104 62.5597C47.4832 61.9611 47.2207 61.1629 47.2207 60.1652C47.2207 59.2959 47.4599 58.5069 47.9361 57.8028C48.4122 57.0964 49.1299 56.5367 50.0914 56.1239C51.0507 55.7111 52.2236 55.5046 53.6102 55.5046C54.5764 55.5046 55.524 55.6193 56.4461 55.8464C57.3705 56.0734 58.1787 56.4037 58.8708 56.8303L57.7885 59.4611C56.388 58.6767 54.9875 58.2845 53.5869 58.2845C52.6045 58.2845 51.8798 58.4404 51.4107 58.7546C50.9415 59.0689 50.7069 59.4817 50.7069 59.9955C50.7069 60.5092 50.9787 60.89 51.5198 61.14C52.061 61.39 52.8878 61.6354 54.0004 61.8785C55.1547 62.1491 56.1 62.4198 56.8363 62.6904C57.5725 62.9611 58.2043 63.39 58.7315 63.9725C59.2587 64.5574 59.5212 65.3487 59.5212 66.3464C59.5212 67.2019 59.2796 67.9817 58.7965 68.6881C58.3134 69.3946 57.5865 69.9542 56.6203 70.367C55.6541 70.7799 54.4765 70.9863 53.0899 70.9863C51.8914 70.9863 50.7325 70.8257 49.6153 70.5046L49.6107 70.5023Z" fill="white"/>
<path d="M71.9029 67.5185H64.8655L63.523 70.7272H59.9276L66.684 55.7593H70.1494L76.9267 70.7272H73.2454L71.9029 67.5185ZM70.7997 64.8877L68.3958 59.1561L65.9919 64.8877H70.7997Z" fill="white"/>
<path d="M88.1657 70.7272L85.2416 66.5574H82.0155V70.7272H78.5084V55.7593H85.0697C86.4122 55.7593 87.5781 55.9795 88.5675 56.4221C89.5546 56.8648 90.3188 57.4909 90.853 58.3029C91.3872 59.1148 91.6543 60.0781 91.6543 61.1905C91.6543 62.3029 91.3848 63.2616 90.8414 64.0666C90.2979 64.8717 89.5314 65.4886 88.535 65.9175L91.9353 70.7295H88.168L88.1657 70.7272ZM87.2785 59.2547C86.7304 58.8052 85.9291 58.5804 84.8746 58.5804H82.0155V63.7983H84.8746C85.9291 63.7983 86.7304 63.5712 87.2785 63.1148C87.8266 62.6584 88.1007 62.0162 88.1007 61.1905C88.1007 60.3648 87.8266 59.7042 87.2785 59.2547Z" fill="white"/>
<path d="M99.946 64.8464L97.9114 66.9428V70.7272H94.4252V55.7593H97.9114V62.7524L104.624 55.7593H108.521L102.241 62.4313L108.888 70.7272H104.796L99.946 64.8464Z" fill="white"/>
<path d="M72.4232 23.8762C69.8474 21.3372 66.4262 19.9358 62.7914 19.9358C59.1565 19.9358 55.733 21.3395 53.1596 23.8762L43.7275 33.1904L43.7229 33.195L43.3234 33.5849L48.8047 38.9977L49.1995 38.6032L49.2042 38.6078L58.6409 29.289C60.9286 27.0298 64.6518 27.0298 66.9442 29.289C69.2319 31.5482 69.2319 35.2294 66.9442 37.4885C64.6518 39.7477 60.9286 39.7477 58.6409 37.4885L58.2414 37.094L52.7601 42.5069L53.1596 42.9014C55.8166 45.5207 59.3028 46.8326 62.7914 46.8326C66.2799 46.8326 69.7661 45.5207 72.4232 42.9014C77.7326 37.6583 77.7326 29.1216 72.4232 23.8762ZM57.0638 41.7592L56.8664 41.617C56.5947 41.422 56.3299 41.211 56.0767 40.9885L55.8956 40.828L56.2184 40.4679L56.3996 40.6285C56.6411 40.8395 56.8943 41.0413 57.1521 41.2271L57.3495 41.3693L57.0638 41.7569V41.7592ZM60.787 43.344L60.5501 43.289C59.8881 43.1353 59.2401 42.9151 58.6246 42.6353L58.404 42.5344L58.6084 42.0986L58.829 42.1996C59.4166 42.4656 60.0344 42.6766 60.6639 42.8234L60.9008 42.8785L60.7893 43.3463L60.787 43.344ZM64.6007 43.4243C64.1199 43.5046 63.6275 43.5482 63.1398 43.5596C63.0678 43.5596 62.9958 43.5596 62.9238 43.5596C62.8053 43.5596 62.6869 43.5596 62.5684 43.5528L62.3245 43.5436L62.3408 43.0642L62.5847 43.0734C62.7658 43.0803 62.947 43.0803 63.1281 43.078C63.5927 43.0688 64.0618 43.0252 64.5194 42.9496L64.7586 42.9106L64.8399 43.3853L64.6007 43.4243ZM68.3865 41.9908C67.8105 42.3509 67.1997 42.6537 66.5656 42.8945L66.338 42.9817L66.1638 42.5321L66.3914 42.445C66.9929 42.2156 67.5759 41.9266 68.1264 41.5849L68.3331 41.4564L68.5932 41.8624L68.3865 41.9908ZM71.45 27.6606L71.5824 27.8624C71.9517 28.4266 72.2652 29.0275 72.5138 29.6514L72.602 29.8739L72.1491 30.0505L72.0609 29.828C71.8239 29.234 71.5267 28.6606 71.1736 28.1239L71.0412 27.922L71.45 27.6606ZM46.7422 35.906L46.3985 35.5665L47.4437 34.5344L47.7874 34.8739L46.7422 35.906ZM48.8697 33.8051L48.526 33.4656L50.2795 31.734L50.6233 32.0734L48.8697 33.8051ZM51.687 31.0229L51.3433 30.6835L53.0969 28.9518L53.4406 29.2913L51.687 31.0229ZM54.502 28.2431L54.1583 27.9037L55.9118 26.172L56.2556 26.5115L54.502 28.2431ZM59.2355 24.4633C58.6502 24.7225 58.0858 25.0436 57.5539 25.4174L57.3565 25.5574L57.0731 25.1651L57.2706 25.0252C57.828 24.6307 58.4226 24.2936 59.0357 24.0229L59.2587 23.9243L59.4584 24.3624L59.2355 24.461V24.4633ZM63.2466 23.6881H62.9214C62.7542 23.6881 62.5847 23.6881 62.4151 23.6996C61.9692 23.7225 61.5163 23.7798 61.075 23.8716L60.8357 23.9197L60.7359 23.4496L60.9751 23.3991C61.4419 23.3028 61.9181 23.2408 62.3919 23.2179C62.5684 23.2087 62.7472 23.2041 62.9214 23.2041H63.2489L63.2466 23.6858V23.6881ZM67.0069 24.5596L66.7839 24.4656C66.1893 24.2133 65.5669 24.0207 64.9328 23.8899L64.6936 23.8418L64.7934 23.3716L65.0327 23.4197C65.6969 23.5551 66.3519 23.7592 66.9744 24.0229L67.1973 24.117L67.0069 24.5596ZM68.4817 25.3899L68.282 25.2546L68.5584 24.8578L68.7581 24.9931C69.3179 25.3739 69.8404 25.8096 70.3143 26.2913L70.4838 26.4633L70.1354 26.7982L69.9659 26.6262C69.5153 26.1674 69.0159 25.7523 68.484 25.3899H68.4817ZM71.3292 39.2408C70.9367 39.7867 70.4861 40.2959 69.9937 40.7569L69.8172 40.922L69.4828 40.5734L69.6593 40.4083C70.1308 39.9679 70.5581 39.4817 70.9344 38.961L71.0761 38.7661L71.4732 39.0459L71.3316 39.2408H71.3292ZM72.9852 35.5872C72.8366 36.2408 72.6206 36.883 72.3419 37.4954L72.242 37.7156L71.7984 37.5184L71.8983 37.2982C72.163 36.7133 72.3698 36.1032 72.5114 35.4817L72.5649 35.2477L73.041 35.3532L72.9876 35.5872H72.9852ZM73.2222 33.8303L72.7344 33.8211L72.739 33.5803C72.739 33.5138 72.739 33.4473 72.739 33.383C72.739 32.8074 72.6879 32.2317 72.5858 31.6697L72.5439 31.4335L73.0224 31.3486L73.0642 31.5849C73.171 32.1743 73.2245 32.7775 73.2245 33.3807C73.2245 33.4496 73.2245 33.5184 73.2245 33.5872L73.2198 33.828L73.2222 33.8303Z" fill="white"/>
</svg>
